<svg width="1076" height="972" viewBox="0 0 1076 972" fill="none" xmlns="http://www.w3.org/2000/svg">
<path d="M919.11 170.104C929.51 179.825 938.61 188.33 947.71 196.836C985.411 233.288 1019.86 279.46 1045.86 343.859C1081.61 430.128 1085.51 527.333 1056.26 623.324C1041.31 673.141 1020.51 712.023 996.461 746.045C949.01 811.659 895.709 852.971 839.808 885.778C757.907 933.165 674.056 958.682 588.904 967.187C496.603 976.908 404.951 968.402 313.3 941.671C246.999 923.445 181.348 894.283 119.597 840.82C95.5464 820.164 71.496 793.433 50.6957 761.841C-3.25517 678.002 -14.9554 547.99 19.4952 432.558C36.3955 375.45 60.4459 328.063 87.0963 286.751C150.797 188.33 224.249 126.362 302.25 81.4044C409.501 19.4361 518.703 -6.08028 630.505 1.21011C704.606 6.07037 778.707 19.4361 850.209 58.3182C871.659 69.2538 891.809 86.2647 912.61 100.845C917.81 104.491 922.36 110.566 926.91 116.641C938.61 133.652 937.96 148.233 924.96 164.029C923.66 166.459 921.71 167.674 919.11 170.104ZM600.605 61.9634C600.605 60.7483 600.605 59.5333 600.605 58.3182C596.705 58.3182 592.154 57.1031 588.254 57.1031C497.903 58.3182 408.852 82.6195 321.75 131.222C246.349 172.534 174.198 230.858 112.447 324.418C87.7463 362.085 64.9959 403.397 48.7457 455.645C18.8452 552.85 28.5954 658.561 75.3961 726.604C92.9464 752.121 112.447 772.777 132.597 789.788C187.198 837.175 245.049 862.692 303.55 882.133C388.051 910.079 473.203 917.37 558.354 913.724C658.456 908.864 757.257 879.703 852.159 818.949C897.009 789.788 939.91 754.551 978.261 702.303C1001.66 669.496 1021.81 630.614 1034.81 580.796C1049.11 524.903 1050.41 467.795 1033.51 413.117C1027.01 392.461 1018.56 371.805 1010.11 354.794C982.161 298.901 948.36 260.019 910.66 229.642C863.859 191.975 815.758 164.029 765.707 145.803C699.406 120.287 632.455 108.136 565.504 133.652C562.254 134.867 557.704 137.297 555.104 134.867C550.554 130.007 544.704 123.932 543.404 116.641C542.104 109.351 546.004 97.2003 549.254 91.125C553.154 85.0496 559.004 82.6195 564.204 80.1894C576.554 71.6839 588.254 66.8237 600.605 61.9634ZM808.608 100.845C840.458 120.287 871.659 138.513 903.509 157.954C874.259 122.717 842.409 108.136 808.608 100.845Z" fill="#0C0C0C"/>
</svg>
