<svg width="2282" height="1284" viewBox="0 0 2282 1284" fill="none" xmlns="http://www.w3.org/2000/svg">
<path d="M1949.63 224.802C1971.69 237.648 1990.99 248.889 2010.29 260.129C2090.27 308.302 2163.34 369.322 2218.49 454.428C2294.33 568.438 2302.6 696.9 2240.56 823.756C2208.84 889.593 2164.72 940.978 2113.71 985.94C2013.05 1072.65 1899.99 1127.25 1781.41 1170.6C1607.68 1233.23 1429.82 1266.95 1249.19 1278.19C1053.4 1291.04 858.988 1279.8 664.576 1244.47C523.937 1220.38 384.677 1181.84 253.69 1111.19C202.674 1083.89 151.658 1048.56 107.536 1006.81C-6.90491 896.016 -31.7235 724.198 41.3534 571.65C77.2025 496.178 128.218 433.553 184.75 378.957C319.873 248.889 475.679 166.994 641.136 107.58C868.64 25.6859 1100.28 -8.03543 1337.43 1.59923C1494.62 8.02233 1651.8 25.6859 1803.47 77.0707C1848.97 91.5227 1891.72 114.004 1935.84 133.273C1946.87 138.09 1956.52 146.119 1966.17 154.148C1990.99 176.629 1989.61 195.898 1962.04 216.773C1959.28 219.985 1955.14 221.59 1949.63 224.802ZM1274.01 81.888C1274.01 80.2822 1274.01 78.6765 1274.01 77.0707C1265.74 77.0707 1256.09 75.4649 1247.81 75.4649C1056.16 77.0707 867.261 109.186 682.5 173.417C522.558 228.014 369.51 305.091 238.523 428.736C186.128 478.515 137.87 533.111 103.4 602.159C39.9746 730.621 60.6568 870.324 159.931 960.247C197.159 993.969 238.523 1021.27 281.266 1043.75C397.086 1106.37 519.801 1140.09 643.893 1165.79C823.139 1202.72 1003.76 1212.35 1184.39 1207.54C1396.72 1201.11 1606.3 1162.58 1807.61 1082.29C1902.75 1043.75 1993.75 997.18 2075.1 928.132C2124.74 884.776 2167.48 833.391 2195.05 767.554C2225.39 693.689 2228.15 618.217 2192.3 545.957C2178.51 518.659 2160.58 491.361 2142.66 468.88C2083.37 395.014 2011.67 343.629 1931.7 303.485C1832.43 253.706 1730.4 216.773 1624.23 192.687C1483.59 158.965 1341.57 142.907 1199.55 176.629C1192.66 178.235 1183.01 181.446 1177.49 178.235C1167.84 171.811 1155.43 163.783 1152.67 154.148C1149.92 144.513 1158.19 128.456 1165.08 120.427C1173.36 112.398 1185.77 109.186 1196.8 105.975C1222.99 94.7342 1247.81 88.3111 1274.01 81.888ZM1715.23 133.273C1782.79 158.965 1848.97 183.052 1916.54 208.744C1854.49 162.177 1786.93 142.907 1715.23 133.273Z" fill="#0C0C0C"/>
</svg>
