<svg width="2282" height="575" viewBox="0 0 2282 575" fill="none" xmlns="http://www.w3.org/2000/svg">
<path d="M1949.63 100.68C1971.69 106.433 1990.99 111.468 2010.29 116.502C2090.27 138.077 2163.34 165.405 2218.49 203.521C2294.33 254.581 2302.6 312.114 2240.56 368.928C2208.84 398.414 2164.72 421.427 2113.71 441.564C2013.05 480.399 1899.99 504.85 1781.41 524.268C1607.68 552.315 1429.82 567.418 1249.19 572.452C1053.4 578.205 858.988 573.171 664.576 557.349C523.937 546.562 384.677 529.302 253.69 497.659C202.674 485.433 151.658 469.611 107.536 450.913C-6.90491 401.291 -31.7235 324.34 41.3534 256.02C77.2025 222.219 128.218 194.171 184.75 169.72C319.873 111.468 475.679 74.7901 641.136 48.1811C868.64 11.5037 1100.28 -3.59875 1337.43 0.716232C1494.62 3.59289 1651.8 11.5037 1803.47 34.517C1848.97 40.9894 1891.72 51.0577 1935.84 59.6877C1946.87 61.8452 1956.52 65.441 1966.17 69.0368C1990.99 79.1051 1989.61 87.7351 1962.04 97.0842C1959.28 98.5226 1955.14 99.2417 1949.63 100.68ZM1274.01 36.6744C1274.01 35.9553 1274.01 35.2361 1274.01 34.517C1265.74 34.517 1256.09 33.7978 1247.81 33.7978C1056.16 34.5169 867.261 48.9002 682.5 77.6668C522.558 102.118 369.51 136.638 238.523 192.014C186.128 214.308 137.87 238.76 103.4 269.684C39.9746 327.217 60.6568 389.784 159.931 430.057C197.159 445.16 238.523 457.386 281.266 467.454C397.086 495.501 519.801 510.604 643.893 522.11C823.139 538.651 1003.76 542.966 1184.39 540.809C1396.72 537.932 1606.3 520.672 1807.61 484.714C1902.75 467.454 1993.75 446.598 2075.1 415.674C2124.74 396.257 2167.48 373.243 2195.05 343.758C2225.39 310.676 2228.15 276.875 2192.3 244.513C2178.51 232.287 2160.58 220.061 2142.66 209.993C2083.37 176.911 2011.67 153.898 1931.7 135.919C1832.43 113.625 1730.4 97.0842 1624.23 86.2968C1483.59 71.1943 1341.57 64.0027 1199.55 79.1051C1192.66 79.8243 1183.01 81.2626 1177.49 79.8243C1167.84 76.9476 1155.43 73.3518 1152.67 69.0368C1149.92 64.7218 1158.19 57.5302 1165.08 53.9344C1173.36 50.3386 1185.77 48.9002 1196.8 47.4619C1222.99 42.4278 1247.81 39.5511 1274.01 36.6744ZM1715.23 59.6877C1782.79 71.1943 1848.97 81.9818 1916.54 93.4884C1854.49 72.6327 1786.93 64.0027 1715.23 59.6877Z" fill="#0C0C0C"/>
</svg>
