<svg width="1809" height="5343" viewBox="0 0 1809 5343" fill="none" xmlns="http://www.w3.org/2000/svg">
<path fill-rule="evenodd" clip-rule="evenodd" d="M0 0V414.736L428.211 0H0Z" fill="#0C0C0C"/>
<path fill-rule="evenodd" clip-rule="evenodd" d="M1808.57 5343V5225.28L1687.04 5343H1808.57Z" fill="#0C0C0C"/>
<path fill-rule="evenodd" clip-rule="evenodd" d="M1808.57 6.81996V0H1171.61L587.269 565.965H574.914V529.805L1121.87 0H477.951L0 462.933V1078.38L525.998 568.94H574.914V621.623L0 1178.48V1736.07L481.062 1270.16H574.914V1363.81L0 1920.57V2412.85L457.131 1970.1H574.914V2119.27L10.6618 2665.82H0V3076.26L420.707 2668.8H574.914V2862.41L53.126 3367.78H0V3728.18L369.045 3370.75H574.914V3598.83L93.6683 4064.92H0V4402.58L345.571 4067.9H574.914V4345.82L136.224 4770.72H0V5060.5L296.105 4773.69H574.914V5076.38L299.674 5343H574.914V5175.57L989.763 4773.69H1268.57V5076.38L993.332 5343H1268.62V5175.57L1683.51 4773.69H1808.57V4494.67L1523.59 4770.72H1268.62V4517.65L1732.98 4067.9H1808.57V3747.73L1481.08 4064.92H1268.62V3843.25L1756.45 3370.75H1808.57V3011.31L1440.53 3367.78H1268.62V3191.28L1808.07 2668.8H1808.57V2268.16L1398.02 2665.82H1268.62V2527.87L1808.57 2004.88V1512.66L1339.36 1967.12H1268.62V1851.14L1808.57 1328.15V770.518L1295.8 1267.18H1268.62V1193.45L1808.57 670.461V54.9716L1280.97 565.965H1268.62V529.805L1808.57 6.81996ZM1268.57 4345.82L829.882 4770.72H574.914V4517.65L1039.27 4067.9H1268.62V4345.87L1268.57 4345.82ZM1268.57 3598.83L787.372 4064.92H574.914V3843.25L1062.75 3370.75H1268.62V3598.83H1268.57ZM1268.57 2862.41L746.784 3367.78H574.914V3191.28L1114.36 2668.75H1268.57V2862.41ZM1268.57 2119.27L704.32 2665.78H574.914V2527.87L1150.79 1970.1H1268.57V2119.27ZM1268.57 1363.76L645.657 1967.12H574.914V1851.14L1174.77 1270.16H1268.62V1363.81L1268.57 1363.76ZM1268.57 621.577L602.094 1267.09H574.914V1193.35L1219.66 568.848H1268.57V621.577Z" fill="#0C0C0C"/>
</svg>
