<svg width="1080" height="1080" viewBox="0 0 1080 1080" fill="none" xmlns="http://www.w3.org/2000/svg">
<rect width="1080" height="1080" fill="#FFDB0D"/>
<path d="M443.922 370.781L490.153 288H582.614L628.845 370.781L582.614 453.563H490.153L443.922 370.781Z" fill="#F2F2F2"/>
<path d="M584.127 454.667H678.479L725.649 539.136L678.479 623.606H584.127L536.951 539.136L584.127 454.667Z" fill="#0C0C0C"/>
<path d="M631.301 539.136H725.647L772.823 623.606L725.647 708.076H631.301L584.126 623.606L631.301 539.136Z" fill="#0C0C0C"/>
<path d="M678.479 623.606L772.824 623.606L820 708.076L772.824 792.551H678.478L631.302 708.076L678.479 623.606Z" fill="#0C0C0C"/>
<path d="M395.429 454.667H489.775L536.951 539.136L489.775 623.606H395.429L348.253 539.136L395.429 454.667Z" fill="#F2F2F2"/>
<path d="M442.606 539.136H536.958L584.133 623.606L536.958 708.076H442.606L395.43 623.606L442.606 539.136Z" fill="#F2F2F2"/>
<path d="M489.78 623.606L584.126 623.606L631.302 708.076L584.126 792.551H489.78L442.605 708.076L489.78 623.606Z" fill="#F2F2F2"/>
<path d="M259 710.219L305.231 627.437H397.692L443.922 710.219L397.692 793H305.231L259 710.219Z" fill="#0C0C0C"/>
</svg>
