<svg width="1138" height="1025" viewBox="0 0 1138 1025" fill="none" xmlns="http://www.w3.org/2000/svg">
<path d="M374.877 167.952L468.597 0H656.035L749.755 167.952L656.035 335.905H468.597L374.877 167.952Z" fill="#F2F2F2"/>
<path d="M659.103 338.144H850.374L945.998 509.522L850.374 680.9H659.103L563.467 509.522L659.103 338.144Z" fill="#0C0C0C"/>
<path d="M754.735 509.522H945.995L1041.63 680.899L945.995 852.277H754.735L659.1 680.899L754.735 509.522Z" fill="#0C0C0C"/>
<path d="M850.374 680.9L1041.63 680.9L1137.27 852.277L1041.63 1023.67H850.373L754.737 852.277L850.374 680.9Z" fill="#0C0C0C"/>
<path d="M276.571 338.144H467.831L563.467 509.522L467.831 680.9H276.571L180.936 509.522L276.571 338.144Z" fill="#F2F2F2"/>
<path d="M372.209 509.522H563.48L659.116 680.899L563.48 852.277H372.209L276.573 680.899L372.209 509.522Z" fill="#F2F2F2"/>
<path d="M467.842 680.9L659.1 680.899L754.737 852.277L659.101 1023.67H467.842L372.206 852.277L467.842 680.9Z" fill="#F2F2F2"/>
<path d="M0 856.625L93.7193 688.672H281.158L374.877 856.625L281.158 1024.58H93.7193L0 856.625Z" fill="#0C0C0C"/>
</svg>
