<svg width="385" height="81" viewBox="0 0 385 81" fill="none" xmlns="http://www.w3.org/2000/svg">
<path d="M137.078 32.0875C140.922 32.0875 143.946 33.3308 146.153 35.8203C148.378 38.2881 149.491 41.6697 149.491 45.9588V63.2302H140.72V47.4475C140.72 45.362 140.195 43.7334 139.141 42.5617C138.088 41.3868 136.652 40.8025 134.83 40.8025C133.615 40.8025 132.453 41.1164 131.34 41.7443C130.227 42.3721 129.357 43.2113 128.729 44.2649V63.2364H119.958V32.7029H128.729V36.3145C129.559 35.0184 130.722 33.999 132.22 33.2499C133.736 32.4823 135.356 32.0969 137.074 32.0969L137.078 32.0875ZM170.222 32.0875C172.429 32.0875 174.502 32.4916 176.444 33.3028C178.408 34.1109 180.087 35.2267 181.482 36.6408C182.9 38.0364 184.012 39.7271 184.82 41.7101C185.65 43.6744 186.064 45.7661 186.064 47.9946C186.064 50.969 185.364 53.6699 183.969 56.0972C182.592 58.5246 180.69 60.4268 178.262 61.8036C175.854 63.1587 173.174 63.8363 170.219 63.8363C165.706 63.8363 161.933 62.3289 158.896 59.3141C155.86 56.2993 154.343 52.5261 154.343 47.9946C154.343 43.463 155.86 39.6774 158.896 36.6439C161.933 33.6105 165.706 32.0906 170.219 32.0906L170.222 32.0875ZM170.222 40.4637C168.136 40.4637 166.399 41.1817 165 42.6176C163.623 44.0349 162.937 45.8251 162.937 47.9914C162.937 50.1578 163.623 51.8672 165 53.3031C166.396 54.739 168.136 55.457 170.222 55.457C172.307 55.457 173.986 54.739 175.381 53.3031C176.777 51.8672 177.476 50.0956 177.476 47.9914C177.476 45.8873 176.777 44.0349 175.381 42.6176C174.004 41.1817 172.286 40.4637 170.222 40.4637ZM218.969 32.6936L206.344 63.2271H198.878L186.191 32.6936H195.72L202.611 51.2984L209.38 32.6936H218.972H218.969ZM234.932 32.0875C237.138 32.0875 239.211 32.4916 241.154 33.3028C243.118 34.1109 244.796 35.2267 246.192 36.6408C247.609 38.0364 248.722 39.7271 249.53 41.7101C250.36 43.6744 250.773 45.7661 250.773 47.9946C250.773 50.969 250.074 53.6699 248.678 56.0972C247.302 58.5246 245.399 60.4268 242.972 61.8036C240.563 63.1587 237.884 63.8363 234.928 63.8363C230.416 63.8363 226.642 62.3289 223.606 59.3141C220.569 56.2993 219.052 52.5261 219.052 47.9946C219.052 43.463 220.569 39.6774 223.606 36.6439C226.642 33.6105 230.416 32.0906 234.928 32.0906L234.932 32.0875ZM234.932 40.4637C232.846 40.4637 231.109 41.1817 229.71 42.6176C228.333 44.0349 227.646 45.8251 227.646 47.9914C227.646 50.1578 228.333 51.8672 229.71 53.3031C231.106 54.739 232.846 55.457 234.932 55.457C237.017 55.457 238.695 54.739 240.091 53.3031C241.486 51.8672 242.186 50.0956 242.186 47.9914C242.186 45.8873 241.486 44.0349 240.091 42.6176C238.714 41.1817 236.995 40.4637 234.932 40.4637ZM280.825 19.7051H285.347V63.2302H280.825V58.4967C279.955 60.0134 278.519 61.2877 276.514 62.3196C274.509 63.3328 272.427 63.8363 270.261 63.8363C265.972 63.8363 262.379 62.3289 259.485 59.3141C256.592 56.2806 255.143 52.5261 255.143 48.0536C255.143 43.5811 256.592 39.8794 259.485 36.8833C262.379 33.8871 265.972 32.3921 270.261 32.3921C272.446 32.3921 274.541 32.9081 276.545 33.9399C278.569 34.9501 279.995 36.215 280.825 37.7349V19.7051ZM270.991 59.5565C272.974 59.5565 274.886 59.0406 276.729 58.0087C278.572 56.9768 279.936 55.6714 280.825 54.0925V42.226C279.955 40.5663 278.6 39.2205 276.757 38.1886C274.935 37.135 273.014 36.6098 270.991 36.6098C267.753 36.6098 265.042 37.7038 262.857 39.8887C260.691 42.0551 259.609 44.7746 259.609 48.0536C259.609 51.3326 260.691 54.0739 262.857 56.2775C265.042 58.4625 267.756 59.5565 270.991 59.5565ZM317.006 33.0293H321.528V63.2302H317.006V58.4967C316.136 60.0134 314.697 61.2877 312.695 62.3196C310.69 63.3328 308.608 63.8363 306.442 63.8363C302.152 63.8363 298.56 62.3289 295.666 59.3141C292.772 56.2806 291.324 52.5261 291.324 48.0536C291.324 43.5811 292.769 39.8794 295.666 36.8833C298.56 33.8871 302.152 32.3921 306.442 32.3921C308.627 32.3921 310.721 32.9081 312.726 33.9399C314.749 34.9501 316.176 36.215 317.006 37.7349V33.0293ZM307.169 59.5565C309.152 59.5565 311.066 59.0406 312.906 58.0087C314.749 56.9768 316.114 55.6714 317.006 54.0925V42.226C316.136 40.5663 314.777 39.2205 312.937 38.1886C311.116 37.135 309.195 36.6098 307.172 36.6098C303.933 36.6098 301.223 37.7038 299.038 39.8887C296.872 42.0551 295.79 44.7746 295.79 48.0536C295.79 51.3326 296.872 54.0739 299.038 56.2775C301.223 58.4625 303.936 59.5565 307.172 59.5565H307.169ZM340.102 63.8363C337.836 63.8363 335.601 63.4416 333.395 62.6521C331.188 61.8627 329.367 60.809 327.931 59.4943L329.963 56.0631C331.138 57.2379 332.667 58.1983 334.548 58.9473C336.431 59.6964 338.262 60.0693 340.043 60.0693C342.085 60.0693 343.735 59.6031 344.988 58.6738C346.243 57.7414 346.871 56.5697 346.871 55.1524C346.871 54.1019 346.535 53.2316 345.87 52.5416C345.202 51.833 344.332 51.2984 343.26 50.9317C342.206 50.5463 341.034 50.2137 339.738 49.9309C338.464 49.648 337.177 49.3248 335.884 48.9612C334.61 48.5758 333.435 48.1095 332.363 47.5656C331.309 47 330.451 46.1794 329.783 45.1072C329.115 44.0349 328.782 42.7388 328.782 41.2221C328.782 38.5927 329.802 36.4668 331.847 34.8475C333.889 33.2095 336.562 32.389 339.859 32.389C341.964 32.389 343.968 32.734 345.87 33.4209C347.791 34.0891 349.33 35.0495 350.483 36.3052L348.357 39.7365C347.365 38.6642 346.02 37.8032 344.323 37.1568C342.641 36.5103 341.034 36.1871 339.496 36.1871C337.634 36.1871 336.136 36.6222 335.005 37.4924C333.889 38.3409 333.332 39.4847 333.332 40.9237C333.332 41.8934 333.668 42.7046 334.336 43.3511C335.005 43.9789 335.862 44.4731 336.916 44.8399C337.988 45.1849 339.173 45.5081 340.465 45.8096C341.762 46.0924 343.058 46.4374 344.351 46.8415C345.647 47.2455 346.821 47.7521 347.872 48.3582C348.944 48.9643 349.815 49.8345 350.483 50.969C351.151 52.1034 351.483 53.4585 351.483 55.0374C351.483 57.6078 350.421 59.7212 348.298 61.3809C346.194 63.0189 343.462 63.8394 340.102 63.8394V63.8363Z" fill="#FFDB0D"/>
<path d="M30.4589 13.1906L38.0737 0H53.3031L60.9178 13.1906L53.3031 26.3811H38.0737L30.4589 13.1906Z" fill="white"/>
<path d="M53.5518 26.5552H69.092L76.8622 40.0131L69.092 53.4709H53.5518L45.7816 40.0131L53.5518 26.5552Z" fill="#FFDB0D"/>
<path d="M61.3219 40.0131H76.8622L84.6323 53.4709L76.8622 66.9288H61.3219L53.5518 53.4709L61.3219 40.0131Z" fill="#FFDB0D"/>
<path d="M69.092 53.4709H84.6323L92.4024 66.9288L84.6323 80.3867H69.092L61.3219 66.9288L69.092 53.4709Z" fill="#FFDB0D"/>
<path d="M22.4712 26.5552H38.0115L45.7816 40.0131L38.0115 53.4709H22.4712L14.7011 40.0131L22.4712 26.5552Z" fill="white"/>
<path d="M30.2414 40.0131H45.7816L53.5518 53.4709L45.7816 66.9288H30.2414L22.4712 53.4709L30.2414 40.0131Z" fill="white"/>
<path d="M38.0115 53.4709H53.5518L61.3219 66.9288L53.5518 80.3867H38.0115L30.2414 66.9288L38.0115 53.4709Z" fill="white"/>
<path d="M0 67.2707L7.61473 54.0832H22.8442L30.4589 67.2707L22.8442 80.4582H7.61473L0 67.2707Z" fill="#FFDB0D"/>
<path d="M380.701 36.0658C378.435 33.6167 375.43 32.3921 371.688 32.3921C369.462 32.3921 367.386 32.8801 365.465 33.8498C363.563 34.8009 362.115 36.0969 361.123 37.7349V19.705H356.573V63.2302H361.123V42.1669C362.034 40.529 363.361 39.2329 365.102 38.2819C366.861 37.3091 368.744 36.8242 370.746 36.8242C373.397 36.8242 375.532 37.7069 377.152 39.466C378.768 41.2066 379.579 43.5314 379.579 46.4467V63.2302H384.132V45.8376C384.132 41.7722 382.989 38.515 380.701 36.0658Z" fill="#FFDB0D"/>
</svg>
