<svg width="2949" height="618" viewBox="0 0 2949 618" fill="none" xmlns="http://www.w3.org/2000/svg">
<path d="M1052.35 246.337C1081.87 246.337 1105.08 255.882 1122.02 274.994C1139.11 293.939 1147.65 319.9 1147.65 352.827V485.421H1080.31V364.257C1080.31 348.246 1076.28 335.743 1068.19 326.748C1060.1 317.728 1049.08 313.243 1035.1 313.243C1025.77 313.243 1016.85 315.653 1008.3 320.472C999.761 325.292 993.08 331.735 988.261 339.823V485.469H920.926V251.062H988.261V278.788C994.631 268.838 1003.56 261.012 1015.06 255.261C1026.7 249.368 1039.13 246.409 1052.33 246.409L1052.35 246.337ZM1306.8 246.337C1323.74 246.337 1339.66 249.439 1354.57 255.667C1369.65 261.871 1382.53 270.437 1393.25 281.293C1404.13 292.007 1412.67 304.987 1418.87 320.21C1425.24 335.29 1428.42 351.348 1428.42 368.456C1428.42 391.291 1423.05 412.026 1412.34 430.661C1401.77 449.296 1387.16 463.899 1368.53 474.469C1350.04 484.872 1329.47 490.074 1306.78 490.074C1272.13 490.074 1243.16 478.501 1219.85 455.357C1196.54 432.212 1184.9 403.245 1184.9 368.456C1184.9 333.667 1196.54 304.605 1219.85 281.317C1243.16 258.029 1272.13 246.361 1306.78 246.361L1306.8 246.337ZM1306.8 310.642C1290.79 310.642 1277.45 316.154 1266.71 327.177C1256.14 338.058 1250.87 351.801 1250.87 368.432C1250.87 385.063 1256.14 398.187 1266.71 409.21C1277.43 420.234 1290.79 425.746 1306.8 425.746C1322.81 425.746 1335.7 420.234 1346.41 409.21C1357.12 398.187 1362.49 384.586 1362.49 368.432C1362.49 352.279 1357.12 338.058 1346.41 327.177C1335.84 316.154 1322.64 310.642 1306.8 310.642ZM1681.03 250.99L1584.11 485.397H1526.8L1429.4 250.99H1502.55L1555.45 393.82L1607.42 250.99H1681.05H1681.03ZM1803.58 246.337C1820.52 246.337 1836.44 249.439 1851.35 255.667C1866.43 261.871 1879.31 270.437 1890.03 281.293C1900.91 292.007 1909.45 304.987 1915.65 320.21C1922.02 335.29 1925.2 351.348 1925.2 368.456C1925.2 391.291 1919.83 412.026 1909.11 430.661C1898.54 449.296 1883.94 463.899 1865.31 474.469C1846.81 484.872 1826.25 490.074 1803.56 490.074C1768.91 490.074 1739.94 478.501 1716.63 455.357C1693.32 432.212 1681.67 403.245 1681.67 368.456C1681.67 333.667 1693.32 304.605 1716.63 281.317C1739.94 258.029 1768.91 246.361 1803.56 246.361L1803.58 246.337ZM1803.58 310.642C1787.57 310.642 1774.23 316.154 1763.49 327.177C1752.92 338.058 1747.65 351.801 1747.65 368.432C1747.65 385.063 1752.92 398.187 1763.49 409.21C1774.21 420.234 1787.57 425.746 1803.58 425.746C1819.59 425.746 1832.47 420.234 1843.19 409.21C1853.9 398.187 1859.27 384.586 1859.27 368.432C1859.27 352.279 1853.9 338.058 1843.19 327.177C1832.62 316.154 1819.42 310.642 1803.58 310.642ZM2155.91 151.277H2190.62V485.421H2155.91V449.081C2149.22 460.725 2138.2 470.508 2122.81 478.43C2107.42 486.208 2091.43 490.074 2074.8 490.074C2041.88 490.074 2014.29 478.501 1992.08 455.357C1969.86 432.069 1958.74 403.245 1958.74 368.909C1958.74 334.574 1969.86 306.156 1992.08 283.154C2014.29 260.153 2041.88 248.676 2074.8 248.676C2091.58 248.676 2107.66 252.637 2123.05 260.558C2138.58 268.313 2149.53 278.024 2155.91 289.692V151.277ZM2080.41 457.218C2095.63 457.218 2110.31 453.257 2124.46 445.335C2138.61 437.413 2149.08 427.392 2155.91 415.271V324.171C2149.22 311.429 2138.82 301.098 2124.67 293.176C2110.69 285.087 2095.94 281.055 2080.41 281.055C2055.55 281.055 2034.74 289.454 2017.97 306.228C2001.34 322.858 1993.03 343.737 1993.03 368.909C1993.03 394.082 2001.34 415.128 2017.97 432.045C2034.74 448.819 2055.57 457.218 2080.41 457.218ZM2433.67 253.567H2468.38V485.421H2433.67V449.081C2426.99 460.725 2415.94 470.508 2400.57 478.43C2385.18 486.208 2369.2 490.074 2352.56 490.074C2319.64 490.074 2292.05 478.501 2269.84 455.357C2247.63 432.069 2236.51 403.245 2236.51 368.909C2236.51 334.574 2247.6 306.156 2269.84 283.154C2292.05 260.153 2319.64 248.676 2352.56 248.676C2369.34 248.676 2385.42 252.637 2400.81 260.558C2416.34 268.313 2427.3 278.024 2433.67 289.692V253.567ZM2358.15 457.218C2373.37 457.218 2388.07 453.257 2402.2 445.335C2416.34 437.413 2426.82 427.392 2433.67 415.271V324.171C2426.99 311.429 2416.56 301.098 2402.43 293.176C2388.45 285.087 2373.71 281.055 2358.17 281.055C2333.31 281.055 2312.5 289.454 2295.73 306.228C2279.1 322.858 2270.79 343.737 2270.79 368.909C2270.79 394.082 2279.1 415.128 2295.73 432.045C2312.5 448.819 2333.33 457.218 2358.17 457.218H2358.15ZM2610.98 490.074C2593.58 490.074 2576.43 487.044 2559.48 480.983C2542.54 474.922 2528.56 466.834 2517.54 456.741L2533.14 430.398C2542.16 439.418 2553.9 446.791 2568.34 452.541C2582.8 458.292 2596.85 461.155 2610.52 461.155C2626.2 461.155 2638.87 457.576 2648.48 450.441C2658.12 443.283 2662.94 434.288 2662.94 423.407C2662.94 415.342 2660.37 408.661 2655.26 403.364C2650.13 397.924 2643.45 393.82 2635.22 391.004C2627.13 388.046 2618.13 385.493 2608.18 383.321C2598.4 381.15 2588.52 378.668 2578.6 375.877C2568.81 372.918 2559.79 369.339 2551.56 365.163C2543.47 360.821 2536.89 354.522 2531.76 346.29C2526.63 338.058 2524.08 328.108 2524.08 316.464C2524.08 296.278 2531.9 279.957 2547.6 267.526C2563.28 254.951 2583.8 248.652 2609.11 248.652C2625.27 248.652 2640.66 251.3 2655.26 256.574C2670.01 261.704 2681.82 269.077 2690.67 278.716L2674.35 305.058C2666.74 296.826 2656.41 290.217 2643.38 285.254C2630.47 280.291 2618.13 277.81 2606.32 277.81C2592.03 277.81 2580.53 281.15 2571.84 287.831C2563.28 294.345 2559.01 303.126 2559.01 314.173C2559.01 321.618 2561.58 327.845 2566.71 332.808C2571.84 337.628 2578.43 341.422 2586.52 344.238C2594.75 346.886 2603.84 349.368 2613.77 351.682C2623.72 353.853 2633.67 356.502 2643.59 359.604C2653.54 362.706 2662.56 366.595 2670.63 371.248C2678.86 375.901 2685.54 382.582 2690.67 391.291C2695.8 400 2698.35 410.403 2698.35 422.524C2698.35 442.257 2690.19 458.482 2673.9 471.224C2657.74 483.799 2636.77 490.098 2610.98 490.098V490.074Z" fill="#101010"/>
<path d="M233.834 101.265L292.293 0H409.21L467.669 101.265L409.21 202.529H292.293L233.834 101.265Z" fill="#101010"/>
<path d="M411.119 203.865H530.422L590.074 307.182L530.422 410.499H411.119L351.467 307.182L411.119 203.865Z" fill="#101010"/>
<path d="M470.771 307.182H590.074L649.726 410.499L590.074 513.815H470.771L411.119 410.499L470.771 307.182Z" fill="#101010"/>
<path d="M530.422 410.499H649.726L709.377 513.815L649.726 617.132H530.422L470.771 513.815L530.422 410.499Z" fill="#101010"/>
<path d="M172.513 203.865H291.816L351.467 307.182L291.816 410.499H172.513L112.861 307.182L172.513 203.865Z" fill="#101010"/>
<path d="M232.164 307.182H351.467L411.119 410.499L351.467 513.815H232.164L172.513 410.499L232.164 307.182Z" fill="#101010"/>
<path d="M291.816 410.499H411.119L470.771 513.815L411.119 617.132H291.816L232.164 513.815L291.816 410.499Z" fill="#101010"/>
<path d="M0 516.44L58.4586 415.199H175.376L233.834 516.44L175.376 617.681H58.4586L0 516.44Z" fill="#101010"/>
<path d="M2922.66 276.879C2905.26 258.077 2882.19 248.676 2853.46 248.676C2836.38 248.676 2820.44 252.422 2805.69 259.866C2791.09 267.168 2779.97 277.118 2772.36 289.692V151.276H2737.43V485.421H2772.36V323.717C2779.35 311.143 2789.54 301.193 2802.9 293.892C2816.41 286.423 2830.87 282.701 2846.23 282.701C2866.59 282.701 2882.98 289.477 2895.41 302.982C2907.82 316.344 2914.04 334.192 2914.04 356.573V485.421H2949V351.897C2949 320.687 2940.22 295.681 2922.66 276.879Z" fill="#101010"/>
</svg>
