<svg width="2949" height="618" viewBox="0 0 2949 618" fill="none" xmlns="http://www.w3.org/2000/svg">
<path d="M1052.35 246.465C1081.87 246.465 1105.08 256.014 1122.02 275.136C1139.11 294.091 1147.65 320.065 1147.65 353.01V485.672H1080.31V364.445C1080.31 348.426 1076.28 335.917 1068.19 326.917C1060.1 317.893 1049.08 313.405 1035.1 313.405C1025.77 313.405 1016.85 315.816 1008.3 320.638C999.761 325.46 993.08 331.906 988.261 339.999V485.72H920.926V251.192H988.261V278.932C994.631 268.977 1003.56 261.147 1015.06 255.393C1026.7 249.497 1039.13 246.536 1052.33 246.536L1052.35 246.465ZM1306.8 246.465C1323.74 246.465 1339.66 249.568 1354.57 255.799C1369.65 262.006 1382.53 270.576 1393.25 281.439C1404.13 292.158 1412.67 305.145 1418.87 320.375C1425.24 335.463 1428.42 351.53 1428.42 368.647C1428.42 391.493 1423.05 412.239 1412.34 430.884C1401.77 449.528 1387.16 464.139 1368.53 474.714C1350.04 485.123 1329.47 490.327 1306.78 490.327C1272.13 490.327 1243.16 478.749 1219.85 455.592C1196.54 432.435 1184.9 403.453 1184.9 368.647C1184.9 333.84 1196.54 304.763 1219.85 281.463C1243.16 258.163 1272.13 246.489 1306.78 246.489L1306.8 246.465ZM1306.8 310.802C1290.79 310.802 1277.45 316.317 1266.71 327.346C1256.14 338.232 1250.87 351.983 1250.87 368.623C1250.87 385.262 1256.14 398.392 1266.71 409.422C1277.43 420.451 1290.79 425.966 1306.8 425.966C1322.81 425.966 1335.7 420.451 1346.41 409.422C1357.12 398.392 1362.49 384.785 1362.49 368.623C1362.49 352.461 1357.12 338.232 1346.41 327.346C1335.84 316.317 1322.64 310.802 1306.8 310.802ZM1681.03 251.12L1584.11 485.648H1526.8L1429.4 251.12H1502.55L1555.45 394.024L1607.42 251.12H1681.05H1681.03ZM1803.58 246.465C1820.52 246.465 1836.44 249.568 1851.35 255.799C1866.43 262.006 1879.31 270.576 1890.03 281.439C1900.91 292.158 1909.45 305.145 1915.65 320.375C1922.02 335.463 1925.2 351.53 1925.2 368.647C1925.2 391.493 1919.83 412.239 1909.11 430.884C1898.54 449.528 1883.94 464.139 1865.31 474.714C1846.81 485.123 1826.25 490.327 1803.56 490.327C1768.91 490.327 1739.94 478.749 1716.63 455.592C1693.32 432.435 1681.67 403.453 1681.67 368.647C1681.67 333.84 1693.32 304.763 1716.63 281.463C1739.94 258.163 1768.91 246.489 1803.56 246.489L1803.58 246.465ZM1803.58 310.802C1787.57 310.802 1774.23 316.317 1763.49 327.346C1752.92 338.232 1747.65 351.983 1747.65 368.623C1747.65 385.262 1752.92 398.392 1763.49 409.422C1774.21 420.451 1787.57 425.966 1803.58 425.966C1819.59 425.966 1832.47 420.451 1843.19 409.422C1853.9 398.392 1859.27 384.785 1859.27 368.623C1859.27 352.461 1853.9 338.232 1843.19 327.346C1832.62 316.317 1819.42 310.802 1803.58 310.802ZM2155.91 151.355H2190.62V485.672H2155.91V449.314C2149.22 460.964 2138.2 470.751 2122.81 478.677C2107.42 486.46 2091.43 490.327 2074.8 490.327C2041.88 490.327 2014.29 478.749 1992.08 455.592C1969.86 432.292 1958.74 403.453 1958.74 369.1C1958.74 334.747 1969.86 306.314 1992.08 283.301C2014.29 260.287 2041.88 248.804 2074.8 248.804C2091.58 248.804 2107.66 252.767 2123.05 260.693C2138.58 268.452 2149.53 278.168 2155.91 289.842V151.355ZM2080.41 457.454C2095.63 457.454 2110.31 453.491 2124.46 445.565C2138.61 437.64 2149.08 427.613 2155.91 415.485V324.338C2149.22 311.59 2138.82 301.253 2124.67 293.327C2110.69 285.234 2095.94 281.2 2080.41 281.2C2055.55 281.2 2034.74 289.603 2017.97 306.386C2001.34 323.025 1993.03 343.914 1993.03 369.1C1993.03 394.286 2001.34 415.342 2017.97 432.268C2034.74 449.051 2055.57 457.454 2080.41 457.454ZM2433.67 253.698H2468.38V485.672H2433.67V449.314C2426.99 460.964 2415.94 470.751 2400.57 478.677C2385.18 486.46 2369.2 490.327 2352.56 490.327C2319.64 490.327 2292.05 478.749 2269.84 455.592C2247.63 432.292 2236.51 403.453 2236.51 369.1C2236.51 334.747 2247.6 306.314 2269.84 283.301C2292.05 260.287 2319.64 248.804 2352.56 248.804C2369.34 248.804 2385.42 252.767 2400.81 260.693C2416.34 268.452 2427.3 278.168 2433.67 289.842V253.698ZM2358.15 457.454C2373.37 457.454 2388.07 453.491 2402.2 445.565C2416.34 437.64 2426.82 427.613 2433.67 415.485V324.338C2426.99 311.59 2416.56 301.253 2402.43 293.327C2388.45 285.234 2373.71 281.2 2358.17 281.2C2333.31 281.2 2312.5 289.603 2295.73 306.386C2279.1 323.025 2270.79 343.914 2270.79 369.1C2270.79 394.286 2279.1 415.342 2295.73 432.268C2312.5 449.051 2333.33 457.454 2358.17 457.454H2358.15ZM2610.98 490.327C2593.58 490.327 2576.43 487.295 2559.48 481.232C2542.54 475.168 2528.56 467.075 2517.54 456.977L2533.14 430.621C2542.16 439.645 2553.9 447.022 2568.34 452.775C2582.8 458.528 2596.85 461.393 2610.52 461.393C2626.2 461.393 2638.87 457.812 2648.48 450.674C2658.12 443.512 2662.94 434.512 2662.94 423.626C2662.94 415.557 2660.37 408.873 2655.26 403.573C2650.13 398.13 2643.45 394.024 2635.22 391.207C2627.13 388.246 2618.13 385.692 2608.18 383.52C2598.4 381.347 2588.52 378.864 2578.6 376.071C2568.81 373.111 2559.79 369.53 2551.56 365.352C2543.47 361.007 2536.89 354.705 2531.76 346.469C2526.63 338.232 2524.08 328.277 2524.08 316.627C2524.08 296.431 2531.9 280.102 2547.6 267.664C2563.28 255.083 2583.8 248.78 2609.11 248.78C2625.27 248.78 2640.66 251.43 2655.26 256.706C2670.01 261.839 2681.82 269.216 2690.67 278.86L2674.35 305.216C2666.74 296.98 2656.41 290.367 2643.38 285.402C2630.47 280.436 2618.13 277.953 2606.32 277.953C2592.03 277.953 2580.53 281.295 2571.84 287.98C2563.28 294.497 2559.01 303.282 2559.01 314.336C2559.01 321.784 2561.58 328.015 2566.71 332.98C2571.84 337.803 2578.43 341.599 2586.52 344.416C2594.75 347.065 2603.84 349.548 2613.77 351.864C2623.72 354.036 2633.67 356.686 2643.59 359.79C2653.54 362.893 2662.56 366.785 2670.63 371.44C2678.86 376.095 2685.54 382.779 2690.67 391.493C2695.8 400.207 2698.35 410.615 2698.35 422.743C2698.35 442.486 2690.19 458.719 2673.9 471.468C2657.74 484.049 2636.77 490.351 2610.98 490.351V490.327Z" fill="#101010"/>
<path d="M233.834 101.317L292.293 0H409.21L467.669 101.317L409.21 202.634H292.293L233.834 101.317Z" fill="#101010"/>
<path d="M411.119 203.971H530.422L590.074 307.341L530.422 410.711H411.119L351.467 307.341L411.119 203.971Z" fill="#FFDB0D"/>
<path d="M470.771 307.341H590.074L649.726 410.711L590.074 514.081H470.771L411.119 410.711L470.771 307.341Z" fill="#FFDB0D"/>
<path d="M530.422 410.711H649.726L709.377 514.081L649.726 617.451H530.422L470.771 514.081L530.422 410.711Z" fill="#FFDB0D"/>
<path d="M172.513 203.971H291.816L351.467 307.341L291.816 410.711H172.513L112.861 307.341L172.513 203.971Z" fill="#101010"/>
<path d="M232.164 307.341H351.467L411.119 410.711L351.467 514.081H232.164L172.513 410.711L232.164 307.341Z" fill="#101010"/>
<path d="M291.816 410.711H411.119L470.771 514.081L411.119 617.451H291.816L232.164 514.081L291.816 410.711Z" fill="#101010"/>
<path d="M0 516.707L58.4586 415.414H175.376L233.834 516.707L175.376 618H58.4586L0 516.707Z" fill="#FFDB0D"/>
<path d="M2922.66 277.022C2905.26 258.21 2882.19 248.804 2853.46 248.804C2836.38 248.804 2820.44 252.552 2805.69 260.001C2791.09 267.306 2779.97 277.261 2772.36 289.842V151.355H2737.43V485.672H2772.36V323.885C2779.35 311.304 2789.54 301.349 2802.9 294.044C2816.41 286.571 2830.87 282.847 2846.23 282.847C2866.59 282.847 2882.98 289.627 2895.41 303.139C2907.82 316.508 2914.04 334.365 2914.04 356.758V485.672H2949V352.079C2949 320.853 2940.22 295.834 2922.66 277.022Z" fill="#101010"/>
</svg>
